Coordinates
version=1
nRows=5
nColumns=40
inDegrees=yes

Units are S.I. units (second, meters, Newtons, ...)
Angles are in degrees.

endheader
time	pelvis_tilt	pelvis_list	pelvis_rotation	pelvis_tx	pelvis_ty	pelvis_tz	hip_flexion_r	hip_adduction_r	hip_rotation_r	knee_angle_r	knee_angle_r_beta	ankle_angle_r	subtalar_angle_r	mtp_angle_r	hip_flexion_l	hip_adduction_l	hip_rotation_l	knee_angle_l	knee_angle_l_beta	ankle_angle_l	subtalar_angle_l	mtp_angle_l	lumbar_extension	lumbar_bending	lumbar_rotation	arm_flex_r	arm_add_r	arm_rot_r	elbow_flex_r	pro_sup_r	wrist_flex_r	wrist_dev_r	arm_flex_l	arm_add_l	arm_rot_l	elbow_flex_l	pro_sup_l	wrist_flex_l	wrist_dev_l
      6.50800000	     -5.08608029	     -6.02947010	     -2.21823103	      0.74611189	      0.93558341	      0.43341187	     31.20814471	     -3.87906122	     -8.30519743	     51.24941598	     51.24941598	      5.94654304	     -7.63429740	     -1.63048169	     14.35987950	     -6.23662965	    -10.63454628	     18.93523404	     18.93523404	     12.84763746	     -5.29463176	     -3.90119879	     -9.89884301	      4.25252342	      1.16296696	     -0.91782751	    -12.77184275	     -0.61178284	     47.58601820	     45.97183609	      0.00000000	      0.00000000	     13.40924027	    -14.64046461	     -0.10827741	     45.67632915	     46.18545341	      0.00000000	      0.00000000
      6.52100000	     -5.16727108	     -6.00251415	     -2.41268794	      0.74499928	      0.93562550	      0.43318262	     31.38052700	     -3.61841327	     -8.33052756	     48.34631389	     48.34631389	      5.72227249	     -6.79893641	     -1.89726634	     13.76555878	     -6.11770693	    -10.71456994	     18.40655898	     18.40655898	     12.76512574	     -5.50767979	     -4.42914126	     -9.87862774	      4.24922239	      0.69210398	     -0.93428694	    -12.20818199	     -2.16459489	     41.99884895	     46.22245506	      0.00000000	      0.00000000	     13.65334902	    -14.82522059	     -1.36388797	     47.51745019	     46.34275310	      0.00000000	      0.00000000
      6.53400000	     -5.21343223	     -5.95129464	     -2.60868614	      0.74394347	      0.93559841	      0.43295225	     31.39926849	     -3.38161379	     -8.46463489	     45.21762390	     45.21762390	      5.62384691	     -5.81063396	     -1.57386620	     13.18264691	     -5.99540478	    -10.84513486	     18.00963613	     18.00963613	     13.00203343	     -5.49001493	     -4.50349827	     -9.94970509	      4.27390878	      0.95671431	     -2.59055300	    -12.54969754	     -2.32252320	     40.44061866	     46.27329463	      0.00000000	      0.00000000	     14.52162726	    -14.74565023	     -1.70931028	     48.61536025	     46.39639465	      0.00000000	      0.00000000
      6.54700000	     -5.29188287	     -5.75148924	     -2.86162253	      0.74300823	      0.93539502	      0.43284427	     31.36305120	     -3.25408050	     -8.60738010	     41.88998981	     41.88998981	      5.26719520	     -4.82988211	     -2.01331077	     12.55745749	     -5.69516944	    -11.01726309	     17.46330237	     17.46330237	     12.92994780	     -5.68829890	     -5.07575002	     -9.94705675	      4.08211303	      0.64369893	     -2.46192536	    -12.03901465	     -4.59473726	     35.00059061	     46.57022322	      0.00000000	      0.00000000	     14.50059602	    -14.91512895	     -3.23455529	     51.28015520	     46.57558637	      0.00000000	      0.00000000
      6.56000000	     -5.28080938	     -5.59156605	     -3.11279983	      0.74219683	      0.93521843	      0.43277158	     31.09809628	     -3.07601368	     -8.90240760	     38.39548637	     38.39548637	      5.14092054	     -3.57115531	     -1.66330865	     11.87126080	     -5.46293310	    -11.27176750	     17.02869897	     17.02869897	     13.15799833	     -5.65348454	     -5.17424218	    -10.05826271	      3.98456476	      1.10512564	     -4.03507062	    -12.37587905	     -5.00394719	     33.52445653	     46.63086564	      0.00000000	      0.00000000	     15.40915239	    -14.77094828	     -3.68874365	     52.71453725	     46.64163556	      0.00000000	      0.00000000
